<svg xmlns="http://www.w3.org/2000/svg" viewBox="0 0 471 391" width="471" height="391">
	<defs>
		<linearGradient id="grd1" gradientUnits="userSpaceOnUse"  x1="189.983" y1="390.994" x2="280.024" y2="0.983">
			<stop offset="0" stop-color="#ff8f5a"  />
			<stop offset="0.987" stop-color="#ff2f95"  />
		</linearGradient>
	</defs>
	<style>
		tspan { white-space:pre }
		.shp0 { fill: url(#grd1) } 
	</style>
	<g id="человек">
		<path id="Ellipse 1 copy" class="shp0" d="M201.92 21.25C256.48 -4.54 307.97 -4.62 351.02 14.74C394.18 33.95 428.9 72.59 452.48 120.62C475.11 169.13 475.09 221.23 456.61 263.37C437.87 306.15 406.69 338.39 364.19 361.41C341.68 373 318.02 380.94 287.95 385.81C258.27 390.61 222.17 392.35 183.93 389.87C108.04 385.11 22.98 362.74 5.04 312.27C-5.13 287.22 1.25 258.5 13.89 229.59C26.74 200.65 45.84 171.52 65.9 144.67C86.16 117.79 107.38 93.19 129.23 72.32C151.28 51.42 173.96 34.25 201.92 21.25L201.92 21.25Z" />
	</g>
</svg>